<svg viewBox="0 0 184.258 220.277" xml:space="preserve" xmlns="http://www.w3.org/2000/svg"><path d="M26.096 36.738c.617.934 1.295 1.832 1.974 2.727l44.147 58.701c.369.482.764.957 1.23 1.371 2.114 1.852 4.432 3.08 6.885 3.65 1.277.3 2.453.432 3.535.432 4.32 0 7.131-2.105 8.825-4.101 2.716-3.21 4.142-7.042 4.123-11.079-.063-14.511-.149-29.025-.237-43.537l-.15-25.607c-.01-2.07-.233-3.982-.682-5.846v-.002c-.472-1.953-1.203-4.502-2.676-6.884-.607-.983-1.609-2.41-3.304-3.481-1.81-1.139-3.574-1.96-5.399-2.518l-1.423-.41L78.554 0l-.544.441c-2.127.57-4.13 1.315-6.074 2.038l-1.561.576c-12.416 4.49-24.832 8.99-37.24 13.492-2.791 1.008-5.18 2.57-7.096 4.639-2.473 2.664-3.35 5.982-2.537 9.6.457 2.038 1.33 4.042 2.594 5.952z" fill="#2d2a57" class="fill-535353"></path><path d="M31.904 26.625c1.057-1.14 2.35-1.977 3.955-2.557 12.41-4.504 24.823-9 37.243-13.492l1.62-.598C76.796 9.21 78.755 8.48 80.737 8l1.31.22c1.128.345 2.259.878 3.456 1.632.217.136.467.437.764.916.87 1.412 1.35 3.095 1.703 4.556.302 1.254.453 2.565.459 4.012l.15 25.615c.088 14.508.176 29.014.236 43.526.01 2.136-.738 4.11-2.226 5.869-.77.904-1.834 1.658-4.44 1.05-1.177-.273-2.3-.888-3.58-2.093l-43.62-58.008-.505-.666c-.576-.758-1.152-1.514-1.675-2.305-.735-1.111-1.213-2.187-1.461-3.293-.266-1.181.03-1.795.597-2.406z" fill="#D8D8D8" class="fill-d8d8d8"></path><path d="M75.172 138.332c1.252-.95 2.205-2.234 2.91-3.934.62-1.484.83-2.933 1-4.093.549-3.711-.556-7.196-3.201-10.086a19.688 19.688 0 0 0-5.803-4.336l-6.855-3.383c-12.897-6.363-25.793-12.727-38.707-19.055-2.768-1.355-5.844-2.074-9.143-2.136h-.002c-2.047-.006-3.726.363-5.207 1.222-2.265 1.326-4.082 3.06-5.404 5.158-.924 1.47-1.455 3.02-1.58 4.614-.166 2.136-.346 4.27-.526 6.404l-2.38 28.11-.274 5.66.629 3.148c.174.824.355 1.645.621 2.438.88 2.648 2.938 4.523 5.79 5.269 1.034.273 2.097.41 3.208.41.94 0 1.914-.097 2.934-.293a36.847 36.847 0 0 0 2.326-.547c.447-.117.893-.234 1.33-.332l17.625-3.804c11.549-2.489 23.096-4.977 34.643-7.48 2.064-.446 4.052-1.415 6.066-2.954z" fill="#2d2a57" class="fill-535353"></path><path d="m32.777 140.945-12.006 2.586c-1.888.407-3.779.809-5.673 1.23-.54.122-1.073.259-1.606.4-.6.155-1.2.312-1.809.429-1.033.199-1.88.195-2.843-.055-.17-.508-.272-1.035-.383-1.558L8 141.997v-3.103c.103-.359.229-.843.28-1.417l2.347-28.098c.182-2.152.363-4.303.53-6.455.013-.184.068-.487.374-.975.637-1.012 1.512-1.834 2.664-2.508.094-.056.323-.164 1.03-.132 2.12.039 4.064.484 5.773 1.32 12.906 6.324 25.795 12.683 38.686 19.043l6.85 3.383a11.763 11.763 0 0 1 3.45 2.57c1.028 1.125 1.381 2.172 1.182 3.516-.121.835-.236 1.625-.469 2.183-.215.516-.355.633-.369.64-1.084.829-2.01 1.305-2.916 1.5a26377.575 26377.575 0 0 1-34.635 7.481z" fill="#D8D8D8" class="fill-d8d8d8"></path><path d="M184.12 157.856c-1.237-4.579-5.169-6.286-6.472-6.848-.697-.305-1.43-.543-2.16-.774l-.441-.14a17.61 17.61 0 0 0-1.002-.278l-50.926-15.94c-2.49-.77-5.06-.856-7.639-.24-4.529 1.071-7.802 4.52-8.342 8.79-.449 3.578.274 7.039 2.09 10.008l12.713 20.734c4.559 7.426 9.117 14.852 13.664 22.285 1.44 2.356 3.29 4.418 5.649 6.301.787.629 1.652 1.172 2.523 1.656 1.49.828 3.072 1.246 4.727 1.246.574 0 1.156-.05 1.744-.152 2.556-.437 5.014-1.488 7.525-3.219a8.84 8.84 0 0 0 2.092-2.054l20.66-28.77c1.494-2.074 2.584-4.484 3.334-7.351.106-.407.182-.82.324-1.614l.075-2.597-.139-1.043z" fill="#2d2a57" class="fill-535353"></path><path d="M176.232 160.504c-.033.191-.062.383-.113.578-.504 1.93-1.166 3.426-2.086 4.703l-20.808 28.922c-1.547 1.063-2.922 1.672-4.325 1.91-.478.082-.83.028-1.242-.203-.49-.27-.976-.562-1.414-.91-1.619-1.293-2.867-2.676-3.814-4.223-4.55-7.437-9.11-14.867-13.67-22.297l-12.707-20.722c-.885-1.45-1.203-3.028-.977-4.836.12-.95.961-1.7 2.254-2.008a6.805 6.805 0 0 1 1.56-.192c.624 0 1.235.098 1.842.286l50.424 15.804c.3.094.604.172.906.25l1.022.301c.463.145.931.285 1.373.477l.008.004c1.18.511 1.61.925 1.793 1.238l-.026.918z" fill="#D8D8D8" class="fill-d8d8d8"></path><path d="M85.135 143.207c-3.905.32-7.356 1.969-9.983 4.773-11.74 12.528-23.425 25.098-35.1 37.676-2.255 2.43-3.874 5.41-4.812 8.864-.5 1.843-.504 3.511-.013 5.09.574 1.874 1.35 3.433 2.37 4.757 1.673 2.176 3.774 3.664 6.239 4.422 10.98 3.399 21.96 6.777 32.945 10.145 1.053.324 2.125.593 3.198.863l1.357.348 5.438.132.898-.086.45-.148c3.526-.57 6.116-2.781 7.306-6.234a14.4 14.4 0 0 0 .79-4.73l-.01-1.403c-.007-.649-.015-1.293-.005-1.938l.428-27.234c.123-7.695.246-15.39.338-23.086.04-3.36-1.182-6.445-3.534-8.91-2.292-2.414-5.183-3.57-8.3-3.301z" fill="#2d2a57" class="fill-535353"></path><path d="M88.969 155.324c-.092 7.684-.215 15.367-.336 23.051l-.43 27.25c-.01.71-.002 1.426.006 2.137l.01 1.316c0 .73-.117 1.441-.352 2.117-.267.778-.511.88-1.021.953-.254.032-.48.078-.68.13h-3.308l-.926-.239c-.938-.234-1.877-.469-2.803-.754-10.98-3.367-21.957-6.746-32.935-10.14-.866-.266-1.604-.81-2.256-1.653-.432-.562-.77-1.27-1.067-2.238 0 0-.04-.16.088-.633.596-2.191 1.59-4.05 2.957-5.52a10983.186 10983.186 0 0 1 35.072-37.652c1.264-1.347 2.88-2.11 4.797-2.265.47-.059 1.086.023 1.856.84.91.953 1.344 2.03 1.328 3.296v.004z" fill="#D8D8D8" class="fill-d8d8d8"></path><path d="M113.723 123.637h.004c.826.183 1.67.289 2.545.39l1.626.211 1.432-.215c.879-.113 1.772-.242 2.649-.488 11.892-3.375 23.779-6.765 35.667-10.16l14.028-4c2.951-.84 5.728-2.336 8.488-4.57 2.854-2.309 4.184-5.55 3.844-9.38a19.812 19.812 0 0 0-1.422-5.823 8.293 8.293 0 0 0-1.357-2.22l-19.291-22.185a570.71 570.71 0 0 1-3.756-4.383l-1.774-2.084c-1.537-1.797-3.388-3.093-5.506-3.851-3.79-1.365-7.45-.799-10.584 1.617-1.293.996-2.43 2.2-3.379 3.582-.28.41-.546.832-.81 1.254l-28.75 44.148c-1.389 2.133-2.144 4.524-2.248 7.117-.203 5.5 3.17 9.833 8.594 11.04z" fill="#2d2a57" class="fill-535353"></path><path d="M114.078 109.848 135.676 76.7l7.23-11.12c.205-.33.41-.66.627-.976.48-.699 1.026-1.279 1.666-1.773.96-.732 1.797-.851 3.004-.422.799.285 1.492.783 2.121 1.52l1.762 2.068c1.266 1.486 2.531 2.973 3.81 4.445l19.301 22.229c.452 1.082.727 2.22.84 3.47.12 1.329-.26 1.92-.908 2.444-1.904 1.543-3.752 2.555-5.648 3.094l-14.03 4.004c-11.885 3.39-23.767 6.78-35.638 10.152-.493.137-1.006.188-1.508.254l-.483.066-.629-.078c-.595-.07-1.173-.129-1.736-.254-1.652-.367-2.392-1.3-2.334-2.922.045-1.136.36-2.136.955-3.054z" fill="#D8D8D8" class="fill-d8d8d8"></path></svg>